<?xml version="1.0" standalone="no"?><!DOCTYPE svg PUBLIC "-//W3C//DTD SVG 1.1//EN" "http://www.w3.org/Graphics/SVG/1.1/DTD/svg11.dtd"><svg class="icon" width="200px" height="200.00px" viewBox="0 0 1024 1024" version="1.1" xmlns="http://www.w3.org/2000/svg"><path d="M296.107 1.536H121.685l249.174 448.17h174.25z" fill="#E64A19" /><path d="M644.779 1.536l-249.174 448.17h174.251L819.2 1.537z" fill="#FF754C" /><path d="M545.11 449.707l-1.707-3.243-1.707 3.243zM441.172 261.973L355.84 421.888l27.819 54.272 86.698-160.085z" fill="#C93D18" /><path d="M171.52 723.627a298.837 298.837 0 1 0 298.837-298.838A298.837 298.837 0 0 0 171.52 723.627z" fill="#FFBA57" /><path d="M470.357 972.8A249.173 249.173 0 1 1 719.36 723.627 249.003 249.003 0 0 1 470.357 972.8z m-74.752-174.421v49.834H545.11V798.38h-50.176V648.533h49.835v-49.322H395.605v49.322h49.835v149.334z" fill="#FFE082" /></svg>